<svg width="500" height="500" viewBox="0 0 500 500" fill="none" xmlns="http://www.w3.org/2000/svg">
<path d="M232.393 405.9C193.339 369.482 191.203 308.299 227.621 269.245L380.808 104.972C381.824 103.883 383.53 103.824 384.62 104.839L442.984 159.265C449.043 164.915 449.374 174.406 443.724 180.465L233.54 405.86C233.235 406.188 232.721 406.206 232.393 405.9V405.9Z" fill="#D39D55"/>
<path d="M124.951 89.2688C125.99 88.568 127.4 88.8422 128.101 89.881L253.87 276.342C283.771 320.672 272.074 380.847 227.745 410.748V410.748C227.432 410.959 227.008 410.877 226.797 410.564L54.3879 154.957C49.7554 148.089 51.5676 138.766 58.4356 134.134L124.951 89.2688Z" fill="url(#paint0_linear_9_24)"/>
<defs>
<linearGradient id="paint0_linear_9_24" x1="86.416" y1="115.261" x2="385.18" y2="584.5" gradientUnits="userSpaceOnUse">
<stop stop-color="#8D0B41"/>
<stop offset="1" stop-color="#D39D55"/>
</linearGradient>
</defs>
</svg>
